<?xml version="1.0" encoding="UTF-8" standalone="no"?>
<!DOCTYPE svg PUBLIC "-//W3C//DTD SVG 1.1//EN" "http://www.w3.org/Graphics/SVG/1.1/DTD/svg11.dtd">
<svg width="100%" height="100%" viewBox="0 0 24 24" version="1.1" xmlns="http://www.w3.org/2000/svg" xmlns:xlink="http://www.w3.org/1999/xlink" xml:space="preserve" xmlns:serif="http://www.serif.com/" style="fill-rule:evenodd;clip-rule:evenodd;stroke-linejoin:round;stroke-miterlimit:2;">
    <path d="M6.4,21L5,19.6L9.825,14.75C10.208,14.367 10.5,13.933 10.7,13.45C10.9,12.967 11,12.458 11,11.925L11,6.825L9.4,8.4L8,7L12,3L16,7L14.6,8.4L13,6.825L13,11.925C13,12.458 13.1,12.967 13.3,13.45C13.5,13.933 13.792,14.367 14.175,14.75L19,19.6L17.6,21L12,15.4L6.4,21Z" style="fill:rgb(208,208,208);fill-rule:nonzero;"/>
    <g transform="matrix(0.502279,0,0,0.502279,0.475635,11.4476)">
        <path d="M22.7,19L13.6,9.9C14.5,7.6 14,4.9 12.1,3C10.1,1 7.1,0.6 4.7,1.7L9,6L6,9L1.6,4.7C0.4,7.1 0.9,10.1 2.9,12.1C4.8,14 7.5,14.5 9.8,13.6L18.9,22.7C19.3,23.1 19.9,23.1 20.3,22.7L22.6,20.4C23.1,20 23.1,19.3 22.7,19Z" style="fill:rgb(208,208,208);fill-rule:nonzero;"/>
    </g>
</svg>
